<svg xmlns="http://www.w3.org/2000/svg" viewBox="0 0 547.41 90.48"><defs><style>.a{fill:#bc2321;}.b{fill:#ead5c8;}</style></defs><title>tobe1_logo</title><path class="a" d="M510.72,74.94a2.22,2.22,0,1,1,0,4.45H481.55a2.22,2.22,0,1,1,0-4.45h11.21a1.2,1.2,0,0,0,1.16-1.16V73.18A1.21,1.21,0,0,0,492.76,72H487.4a4.43,4.43,0,0,1-4.45-4.45V57.58a4.42,4.42,0,0,1,4.45-4.39h17.36a4.42,4.42,0,0,1,4.45,4.39v9.93A4.43,4.43,0,0,1,504.76,72h-5.3a1.21,1.21,0,0,0-1.16,1.22v0.61a1.2,1.2,0,0,0,1.16,1.16h11.27Zm-23,18a4.37,4.37,0,0,1-4.39-4.39V86a4.42,4.42,0,0,1,4.39-4.45h16.81A4.42,4.42,0,0,1,508.9,86v2.5a4.37,4.37,0,0,1-4.39,4.39h-5.06a1.21,1.21,0,0,0-1.16,1.22v10.66a2.19,2.19,0,0,1-4.39,0V94.13a1.21,1.21,0,0,0-1.16-1.22H487.7Zm-2.13,11.82a1.64,1.64,0,0,1-1.52-2.25l1-2.62a3.49,3.49,0,0,1,3.23-2.19,1.63,1.63,0,0,1,1.52,2.19l-1,2.62A3.55,3.55,0,0,1,485.57,104.73ZM505,58.62a1.21,1.21,0,0,0-1.16-1.22H488.43a1.21,1.21,0,0,0-1.16,1.22v0.55a1.16,1.16,0,0,0,1.16,1.16h15.41A1.16,1.16,0,0,0,505,59.17V58.62Zm-16.57,6.15A1.21,1.21,0,0,0,487.27,66v0.55a1.16,1.16,0,0,0,1.16,1.16h15.41A1.16,1.16,0,0,0,505,66.54V66a1.21,1.21,0,0,0-1.16-1.22H488.43Zm0,20.71a1.21,1.21,0,0,0-1.16,1.22v1.16A1.16,1.16,0,0,0,488.43,89h15.41A1.16,1.16,0,0,0,505,87.86V86.7a1.21,1.21,0,0,0-1.16-1.22H488.43Zm13.95,14.38a1.53,1.53,0,0,1,1.4-2.19,3.84,3.84,0,0,1,3.47,2.19l0.06,0.18a1.5,1.5,0,0,1-1.34,2.19A3.83,3.83,0,0,1,502.5,100Zm23-8a8.9,8.9,0,0,1,6.4-2.74A1.66,1.66,0,0,1,533,91.82l-10.11,10.29a9.09,9.09,0,0,1-6.4,2.68,1.62,1.62,0,0,1-1.1-2.68ZM529,55.94a1.57,1.57,0,0,1,1.1,2.68L523,65.81a9.08,9.08,0,0,1-6.4,2.62,1.58,1.58,0,0,1-1.1-2.62l7.07-7.13A8.94,8.94,0,0,1,529,55.94ZM518,84.32a1.59,1.59,0,0,1-1.1-2.74l7-7.07a9.13,9.13,0,0,1,6.46-2.68,1.62,1.62,0,0,1,1.1,2.68l-6.94,7.07A9.07,9.07,0,0,1,518,84.32Z" transform="translate(-107.26 -20.46)"/><path class="a" d="M545.39,76.41A2.39,2.39,0,0,1,543,74a2.44,2.44,0,0,1,2.44-2.44h10.17a0.88,0.88,0,0,0,.85-1.16l-1.71-6.21a1.63,1.63,0,0,0-1.52-1.16h-2.25a2.38,2.38,0,1,1,0-4.75h13.71a0.87,0.87,0,0,0,.85-0.85V56.79a2.34,2.34,0,0,1,2.38-2.38,2.38,2.38,0,0,1,2.38,2.38v0.67a0.83,0.83,0,0,0,.85.85h13.77a2.38,2.38,0,0,1,0,4.75H582.6a1.45,1.45,0,0,0-1.46,1.16l-1.52,6.21a0.94,0.94,0,0,0,.91,1.16h9.87A2.44,2.44,0,0,1,592.84,74a2.39,2.39,0,0,1-2.44,2.38h-45Zm10.72,28.87a4.42,4.42,0,0,1-4.39-4.45V84.39a4.42,4.42,0,0,1,4.39-4.45H580a4.42,4.42,0,0,1,4.39,4.45v16.45a4.42,4.42,0,0,1-4.39,4.45H556.11Zm0.3-16.75a1.17,1.17,0,0,0,1.22,1.16h21a1.16,1.16,0,0,0,1.16-1.16V85.91a1.16,1.16,0,0,0-1.16-1.16h-21a1.17,1.17,0,0,0-1.22,1.16v2.62Zm0,10.72a1.21,1.21,0,0,0,1.22,1.16h21a1.2,1.2,0,0,0,1.16-1.16V95.84a1.21,1.21,0,0,0-1.16-1.22h-21a1.22,1.22,0,0,0-1.22,1.22v3.41Zm5.06-28.81A1.57,1.57,0,0,0,563,71.59H573.1a1.5,1.5,0,0,0,1.46-1.16l1.52-6.21a0.94,0.94,0,0,0-.91-1.16H560.61a1,1,0,0,0-.91,1.16Z" transform="translate(-107.26 -20.46)"/><path class="a" d="M604,103a2.13,2.13,0,0,1-2.13-2.31l0.91-9.14a2.63,2.63,0,0,1,2.56-2.38,2.15,2.15,0,0,1,2.13,2.38l-0.91,9.14A2.62,2.62,0,0,1,604,103ZM616.6,74.4A2.07,2.07,0,0,1,618.67,72a2.65,2.65,0,0,1,2.68,2.38l1,8.35a2.13,2.13,0,0,1-2.07,2.38h-1a1.63,1.63,0,0,1-1.58-1.4,0.46,0.46,0,0,0-.49-0.37h-1.28a1.17,1.17,0,0,0-1.16,1.22v19.55a2.56,2.56,0,0,1-5.12,0V84.75a1.17,1.17,0,0,0-1.22-1.16l-2.62.12A2.48,2.48,0,0,1,603.62,80l3.66-6.27a1.56,1.56,0,0,0-.24-1.89l-2.44-2.5a5.69,5.69,0,0,1-.73-6.88l4-6.46a5.4,5.4,0,0,1,4.51-2.5,1.64,1.64,0,0,1,1.4,2.5l-5.36,8.47a1.48,1.48,0,0,0,.18,1.83l1,1a0.92,0.92,0,0,0,1.46-.18l1.34-2.25a5,5,0,0,1,4.2-2.38,1.57,1.57,0,0,1,1.34,2.38l-7.55,12.91a0.63,0.63,0,0,0,.55,1l5-.18a1.06,1.06,0,0,0,1-1.16ZM617,92.91a2.23,2.23,0,0,1,2.19-2.38,2.49,2.49,0,0,1,2.5,2.38L622,98a2.14,2.14,0,0,1-2.19,2.31,2.43,2.43,0,0,1-2.5-2.31Zm8.59-33.69a4.42,4.42,0,0,1,4.45-4.39h20.16a4.42,4.42,0,0,1,4.45,4.39v44.89a2.29,2.29,0,0,1-2.25,2.25,2.25,2.25,0,0,1-2.25-2.25V60.63a1.21,1.21,0,0,0-1.22-1.16H631.4a1.16,1.16,0,0,0-1.16,1.16v43.43a2.31,2.31,0,1,1-4.63,0V59.23Zm19.25,4.33a1.79,1.79,0,0,1,1.77,2.19l-1,4.87a0.49,0.49,0,0,0,.49.61h0.3a2.13,2.13,0,0,1,0,4.26h-2.74a1.17,1.17,0,0,0-1.22,1.16v1.16A1.22,1.22,0,0,0,643.64,79h2.74a2.1,2.1,0,0,1,0,4.2h-6a1.21,1.21,0,0,0-1.16,1.22V90.6a1.21,1.21,0,0,0,1.16,1.22H646a2.25,2.25,0,1,1,0,4.51h-6.88a4.42,4.42,0,0,1-4.39-4.45v-8.1a0.55,0.55,0,0,0-.55-0.55,2,2,0,0,1-2-1.95V81.1A2.11,2.11,0,0,1,634.26,79H637a1.17,1.17,0,0,0,1.16-1.22V76.65A1.12,1.12,0,0,0,637,75.49h-2.74a2.13,2.13,0,0,1,0-4.26h5.54a1.43,1.43,0,0,0,1.4-1.16l0.91-4.32A2.76,2.76,0,0,1,644.86,63.55Zm-8.83,0a2.74,2.74,0,0,1,2.68,2.19L638.89,67a1.79,1.79,0,0,1-1.77,2.19A2.69,2.69,0,0,1,634.44,67l-0.24-1.28A1.81,1.81,0,0,1,636,63.55Z" transform="translate(-107.26 -20.46)"/><path class="a" d="M242.84,65.94V104.5s-6.64,0-6.64-3.47V65.94h-8.59c-4.39,0-5-3.59-5-6.09,0,0,1.58,1,6,1h22c4.39,0,6-1,6-1,0,2.5-.67,6.09-5.06,6.09h-8.71Z" transform="translate(-107.26 -20.46)"/><path class="a" d="M281.83,94.39c0,6.4-4.45,10.23-13.95,10.23S254,100.78,254,94.39V82.51c0-6.4,4.45-10.23,13.89-10.23s13.95,3.84,13.95,10.23V94.39Zm-6.4-11c0-4-1.28-6.27-7.55-6.27s-7.49,2.31-7.49,6.27V93.48c0,4,1.28,6.27,7.49,6.27s7.55-2.31,7.55-6.27V83.42Z" transform="translate(-107.26 -20.46)"/><path class="a" d="M289.75,60.83H303c8.83,0,15.17,2.68,15.17,10.66v1.71c0,4-2,7.49-4.93,8.89a10,10,0,0,1,5.54,9.2v1.64c0,7.68-6.4,11-15.78,11h-7.49s-5.79-.06-5.79-3.47V60.83Zm6.64,5.12V79.53h7.13c6,0,8-2.5,8-7.25s-2.74-6.33-8.53-6.33h-6.64Zm0,18.7V98.77H303c6.4,0,9.14-1.89,9.14-6.76,0-4.69-2.62-7.37-8.65-7.37h-7.13Z" transform="translate(-107.26 -20.46)"/><path class="a" d="M351,97.74c0,4.33-5.36,6.88-11.88,6.88-8.47,0-13.58-3.84-13.58-10.23V82.51c0-6.4,4.45-10.23,12.67-10.23s12.43,3.84,12.43,9.62c0,5.06-3.23,9.5-12.49,9.5a14,14,0,0,1-6.21-1.28v3.35c0,4,2.07,6,7.19,6,5.85,0,10.11-2.38,10.17-6.33A8.37,8.37,0,0,1,351,97.74ZM331.9,85.37a22.8,22.8,0,0,0,5.42.85c5.12,0,6.88-1.58,6.88-4.32s-1.64-4.75-6.15-4.75c-4.87,0-6.15,2.31-6.15,6.27v1.95Z" transform="translate(-107.26 -20.46)"/><path class="a" d="M374.9,100.48a3.41,3.41,0,0,0,2.13.79h31.37a2.32,2.32,0,0,1,2.38,2.44,2.27,2.27,0,0,1-2.37,2.38H378.19A10.45,10.45,0,0,1,370.7,103l-1.64-1.65a2,2,0,0,0-2.13-.12l-5.79,4.26a1.46,1.46,0,0,1-2.38-1.16,6.4,6.4,0,0,1,2.56-5.12l3.53-2.56a3,3,0,0,0,.91-2.13V82.45a1.33,1.33,0,0,0-1.28-1.28h-3.35a2.32,2.32,0,0,1-2.38-2.44,2.27,2.27,0,0,1,2.38-2.38h5.12a4.28,4.28,0,0,1,4.45,4.26V94.88a3.23,3.23,0,0,0,.85,2.25Zm-7.07-33.93a1.86,1.86,0,0,1-1.77,2.5,3.7,3.7,0,0,1-3.53-2.5l-0.61-1.89a1.87,1.87,0,0,1,1.83-2.5,3.76,3.76,0,0,1,3.53,2.5Zm13.58,7.86a1,1,0,0,0,1-1.34l-0.79-2a2,2,0,0,0-1.83-1.34h-2a1.87,1.87,0,0,1-2.07-2,2,2,0,0,1,2.07-2.19h10.78a1.68,1.68,0,0,0,1.46-1.4V63.69a1.68,1.68,0,0,0-1.46-1.46h-6.88a2.07,2.07,0,1,1,0-4.14h7.25a1.3,1.3,0,0,0,1.1-1V56.32a2.07,2.07,0,0,1,4.14,0V57a1.3,1.3,0,0,0,1,1h7.43a2.07,2.07,0,1,1,0,4.14h-7.07a1.68,1.68,0,0,0-1.4,1.46v0.43a1.68,1.68,0,0,0,1.4,1.4h10.84a2,2,0,0,1,2,2.19,1.86,1.86,0,0,1-2,2h-2a1.73,1.73,0,0,0-1.71,1.34l-0.73,2a1.22,1.22,0,0,0,1,1.34h2.74a2.1,2.1,0,0,1,0,4.2H395.55a1.68,1.68,0,0,0-1.4,1.46v0.61a1.62,1.62,0,0,0,1.4,1.4h7.31a2.1,2.1,0,1,1,0,4.2h-7.31a1.62,1.62,0,0,0-1.4,1.4v1.16a1.62,1.62,0,0,0,1.4,1.4H406A2,2,0,0,1,408,92.38,1.92,1.92,0,0,1,406,94.45H395.43a1.43,1.43,0,0,0-1.28,1.22v1.58a2.07,2.07,0,1,1-4.14,0V95.67a1.49,1.49,0,0,0-1.28-1.22H378.31a1.92,1.92,0,0,1-2.07-2.07,2,2,0,0,1,2.07-2.13h10.23a1.62,1.62,0,0,0,1.46-1.4V87.69a1.62,1.62,0,0,0-1.46-1.4h-7.19a2.1,2.1,0,0,1,0-4.2h7.19a1.62,1.62,0,0,0,1.46-1.4V80.07a1.68,1.68,0,0,0-1.46-1.46h-10a2.1,2.1,0,1,1,0-4.2h2.86Zm14,0a1.79,1.79,0,0,0,1.77-1.34l0.73-1.95a1.12,1.12,0,0,0-1-1.4h-9.69a1,1,0,0,0-1,1.34l0.79,2a1.91,1.91,0,0,0,1.83,1.34h6.58Z" transform="translate(-107.26 -20.46)"/><path class="a" d="M447.82,77.27a3.48,3.48,0,0,0,.73,2.13l18,23.33a1.71,1.71,0,0,1-1.34,2.8,7.18,7.18,0,0,1-5.73-2.8L445.81,85a0.89,0.89,0,0,0-1.4.06l-12.67,17.67a6.61,6.61,0,0,1-5.42,2.8,1.77,1.77,0,0,1-1.46-2.8l16.69-23.27a3.7,3.7,0,0,0,.67-2.13V58.27a2.8,2.8,0,0,1,5.6,0v19Z" transform="translate(-107.26 -20.46)"/><path class="b" d="M203.71,70.59q-7.34-6.53-22.58-7.79,12.69-1.74,19-7a17.35,17.35,0,0,0,6.42-13.94q0.18-21.13-36.53-21.44l-16.77.39-14.73.27v0l-30.41-.26L107.5,42.42l3,0q1.46-8.51,4.1-12.64t5.62-4.94q3-.8,11.63-0.73h0.59l-0.54,63.18q-0.1,11.23-.75,14.29a6.74,6.74,0,0,1-2.88,4.5c-1.48,1-12.59,1.35-16.42,1.31l-4.62,0,0,3,53.08,0.45v0l11.6,0.1q13.14,0.11,21-1.7a23.19,23.19,0,0,0,12.91-7.88A22.21,22.21,0,0,0,211,86.83,20.61,20.61,0,0,0,203.71,70.59ZM165.28,23.85q2.71-.18,5.28-0.15,9.9,0.08,14,2.2a13.9,13.9,0,0,1,6.09,6q2,3.85,2,10.85-0.09,10-5.34,14.48t-19.52,4.32q-1.12,0-2.77-.09Zm-13.11,20L151.8,87.45q-0.1,11.23-.72,14.29a6.63,6.63,0,0,1-2.84,4.5l-0.12.06c-0.08-.05-0.2-0.09-0.28-0.15a7,7,0,0,1-2.63-4.91,118.16,118.16,0,0,1-.38-13.8s-1.4-44.54,1-58.18c0.18-1.07,1.5-4.67,2.82-4.56s2.86,4,3.07,5.11Q152.26,33,152.17,43.88Zm39.18,58.7q-5.33,5.37-15.89,5.28-5.94-.05-7.94-1.85a8.12,8.12,0,0,1-2.43-5.24q-0.44-3.44-.32-16.18l0.17-19.94q2.64-.11,5-0.09,15.05,0.13,21,5.43t5.84,16.39Q196.68,97.21,191.35,102.58Z" transform="translate(-107.26 -20.46)"/></svg>