<svg xmlns="http://www.w3.org/2000/svg" xmlns:xlink="http://www.w3.org/1999/xlink" viewBox="0 0 234.95 55.72"><defs><style>.a,.b{fill:none;}.a{clip-rule:evenodd;}.c{clip-path:url(#a);}.d{clip-path:url(#b);}.e{fill:#fff;}.f{clip-path:url(#c);}.g{clip-path:url(#e);}.h{clip-path:url(#g);}.i{isolation:isolate;}.j{clip-path:url(#i);}.k{clip-path:url(#j);}.l{clip-path:url(#l);}.m{clip-path:url(#n);}.n{clip-path:url(#p);}.o{clip-path:url(#r);}.p{clip-path:url(#t);}.q{clip-path:url(#v);}.r{clip-path:url(#x);}.s{clip-path:url(#z);}.t{clip-path:url(#ab);}.u{clip-path:url(#ad);}</style><clipPath id="a" transform="translate(-5 -7)"><path class="a" d="M156.11,38.33v3.88q0,2.1-5.27,2.39a1.71,1.71,0,0,1,0,.32v5.5q-0.1,2.2-4.54,2.2-2.49-.19-2.78-1.94a3.76,3.76,0,0,1-2.05.73q-1.8,0-2.15-.92a1.12,1.12,0,0,1,.76-1.11,1.22,1.22,0,0,1,.91,1q0.92,0,1.67-3.44a1.06,1.06,0,0,0-1.07-1V45.3q2.46-.06,5-0.16a10.85,10.85,0,0,1-2.05,4.64h0.06a0.84,0.84,0,0,1,.82,1,0.7,0.7,0,0,0,.54.83,1.22,1.22,0,0,0,1.36-1.4V44.63q-4.86-.29-5.14-2.39V38.33h13.92Zm0.66-4.68h0.63v4.14h-0.63q0-1.15-2.78-1.24H143.78q-2.4.19-2.74,1.72h-0.69v-4.8H141q0,2,2.74,2h3.5V34.29q0-.67-1.77-0.67V32.86h7.19v0.76q-1.73.06-1.73,0.67V35.5h3Q156.78,35.5,156.78,33.65Zm-0.47-9.83v6q0,2.42-7.51,2.42-6.69,0-7-2.39v-6H156.3Zm-11,3.56h7.38V24.87h-7.38v2.51Zm7.38,1.11h-7.38v1.21q0,1.59,3.44,1.59,3.94,0,3.94-1.59V28.5ZM145.8,39.44v2.67q0,1.62,3.09,1.62,3.57,0,3.57-1.65V39.44H145.8Zm10.41,5.82v1.08a0.71,0.71,0,0,0-.6.83q0.41,2.51,1.61,2.51,0.44,0,.44-1a0.84,0.84,0,0,1,.63-0.79,1,1,0,0,1,1,.92q0,1.53-1.83,1.78a0.68,0.68,0,0,0,.6.67q1.61,0,3.6-2.74a10.64,10.64,0,0,0,1.58-5.15,0.77,0.77,0,0,0-.76-1v-0.7q3.19-.19,6.31-0.54-3.35,11.07-11.17,11.42-2.05,0-2.05-1.69a0.75,0.75,0,0,1,.16-0.35q-3.35-.7-4.16-5.34h4.61Zm10.76-22q-1.74,9.51-7.57,9.51-2.81,0-3.12-1.4a1.05,1.05,0,0,1,.91-1.15,1.34,1.34,0,0,1,1.2.67q0,1,.35,1,2.49,0,3.38-6.52,0-.6-1-0.67V24A48.15,48.15,0,0,0,167,23.22ZM167.5,32q-1.73,9.77-7.67,9.77-2.84,0-3.12-1.4a1,1,0,0,1,.95-1.15,1.45,1.45,0,0,1,1.2.6q0,1,.32,1Q162,40.87,163,34q0-.54-1-0.57v-0.7A41.47,41.47,0,0,0,167.5,32Z"/></clipPath><clipPath id="b" transform="translate(-5 -7)"><rect class="b" x="-269" y="-14" width="1023" height="2262"/></clipPath><clipPath id="c" transform="translate(-5 -7)"><path class="a" d="M200.32,32.86h0.85v5.66h-0.85q0-1.78-2.9-1.91H176.28q-2.52.26-2.9,2.2h-0.88V32.92h0.88q0,2.48,2.9,2.54h21Q200.32,35.47,200.32,32.86Zm-2.3-8h0.79v5.7H198q0-1.81-3-1.94H177.92q-2.59.25-2.93,2.2H174.1V24.9H175q0,2.48,2.93,2.54h6.31V25.22q0-.86-2.43-0.86V23.44h8.8v0.92q-2.53.06-2.52,0.86v2.23H195Q198,27.45,198,24.84Zm-22.12,14h20.51V49.15q0,3.44-10.35,3.44-10,0-10.16-3.44V38.81Zm4.32-9.35a2.2,2.2,0,0,1,2.4,2.42q0,2.64-2.4,2.64-2.18,0-2.46-2.48Q177.76,29.77,180.22,29.45Zm-0.41,15.11h12.46V40H179.81v4.58Zm5.55,6.9q6.91,0,6.91-2.51V45.77H179.81V49Q180.16,51.34,185.37,51.47ZM195.18,29q-0.66,4.3-3.63,5.19a18.25,18.25,0,0,1-5.52.67q0-.35-0.06-1,3.85-.06,4.48-1.81a1.32,1.32,0,0,0-1.29-1.46v-1A57.68,57.68,0,0,0,195.18,29Z"/></clipPath><clipPath id="e" transform="translate(-5 -7)"><path class="a" d="M211.51,41.76q-0.06,1.94-.13,4.07-0.6,5.06-3.79,5.06a1.26,1.26,0,0,1-1.48-1.37,1.34,1.34,0,0,1,.79-0.64,0.83,0.83,0,0,1,.69.64,0.57,0.57,0,0,0,.54.54,22.73,22.73,0,0,0,.09-3.15V43.71a0.83,0.83,0,0,0-.82-1V42.11Q209.42,42,211.51,41.76Zm7.19-16.89h16.25V48.16q0,4.61-5.08,4.61-3.41,0-3.91-1.56a1.43,1.43,0,0,1,.92-1.4,1,1,0,0,1,1.07,1,0.86,0.86,0,0,0,.51,1q3.19,0,3.19-3.41V25.92h-9.78v26h-4.8V51.28q1.64,0,1.64-1.08V44.63A1.66,1.66,0,0,1,217,45.71a1.76,1.76,0,0,1-1.86-1.31v5.22a1.23,1.23,0,0,0,1.26,1.5v1.05h-5.74V51.12a1.25,1.25,0,0,0,1.33-1.5v-10a28,28,0,0,1-2.87,1,1.26,1.26,0,0,0-.35.48,0.39,0.39,0,0,1-.35.22c-0.34,0-.51-0.13-0.51-0.38q-0.32-1.69-.69-3.63,3.41-.54,5.81-4.8-1.8,1.18-4.48,2.7a0.72,0.72,0,0,1-.6.48,0.27,0.27,0,0,1-.32-0.29q-0.09-1.78-.25-4.17,2.52,0,3.53-6.14,0-.57-0.91-0.64v-0.6h5.11q-1.36,5.25-5.14,7.44a20.23,20.23,0,0,0,3.88-.38q0.35-.83.66-1.69a0.73,0.73,0,0,0-.51-0.8V27.77h4.73V24.87Zm-3.09,11.68q-0.13-1.3-.19-2.86a16.71,16.71,0,0,1-4.2,3.31A18.75,18.75,0,0,0,215.61,36.55Zm-0.51,6.3A2,2,0,0,1,217,41.67a1.69,1.69,0,0,1,1.73,1V28.12a14.32,14.32,0,0,1-2.81,5h0.73a4.1,4.1,0,0,0,1.64,3.63q-0.13,2.1-.32,4.26-1.52-.22-2.15-3.24-0.35.22-.7,0.41v4.68Zm15.43-11.45H231V35h-0.51q0-.86-2.4-1v4.71q2.49,0,2.49-1.78h0.54v3.88h-0.54q0-1.11-2.46-1.21H226.9v5q0,1.56.82,1.62,0.44,0,.76,0a1,1,0,0,0,1-.83,1,1,0,0,1,.85-1.18,0.81,0.81,0,0,1,1,.8A2,2,0,0,1,230,46.92a2.24,2.24,0,0,1-1.64.45q-4.42,0-4.54-2.61V40a1.44,1.44,0,0,0-1,.89h-0.54V37.15h0.54q0,1.37,2,1.56V34.1q-1.7.26-2,1.08h-0.54V31.43h0.54q0,1.5,2.9,1.53h1.83Q230.53,33,230.53,31.39Zm-6.12-3.79a1.62,1.62,0,0,1,1.8,1.78,1.66,1.66,0,0,1-1.8,1.94,1.75,1.75,0,0,1-1.83-1.81A1.79,1.79,0,0,1,224.41,27.61Zm2.18-.86q2.24,0.1,4.67.1-0.95,4.61-4.76,5.79c-0.29,0-.44-0.12-0.44-0.22a1.18,1.18,0,0,1,.54-0.79A7.9,7.9,0,0,0,227.5,28q0-.51-0.91-0.57V26.75Z"/></clipPath><clipPath id="g" transform="translate(-5 -7)"><rect class="b" x="10" y="17.1" width="60.77" height="36.48"/></clipPath><clipPath id="i" transform="translate(-5 -7)"><rect class="b" x="10" y="17" width="61" height="37"/></clipPath><clipPath id="j" transform="translate(-5 -7)"><path class="a" d="M58,17.1H22.73A12.82,12.82,0,0,0,10,29.94V40.74A12.82,12.82,0,0,0,22.73,53.58H58A12.82,12.82,0,0,0,70.77,40.74V29.94A12.82,12.82,0,0,0,58,17.1ZM24.51,31.72a12.35,12.35,0,0,0-.92-3.07,1.68,1.68,0,0,0-1.47-1h0q-0.85,0-.85,1.16V42.56a1.24,1.24,0,0,0,.27.78,0.71,0.71,0,0,0,.57.35h0.67V44.6H16.43V43.7h0.62a0.77,0.77,0,0,0,.6-0.35,1.32,1.32,0,0,0,.25-0.78V28.78q0-1.16-.85-1.16h0a1.68,1.68,0,0,0-1.47,1,11.92,11.92,0,0,0-.95,3.07l-0.82-.15,0.5-4.83H24.84l0.5,4.83Zm13.2,11.39A5,5,0,0,1,33.57,45a4.85,4.85,0,0,1-4.12-1.91,7.56,7.56,0,0,1-1.37-4.73,7.51,7.51,0,0,1,1.37-4.7,4.88,4.88,0,0,1,4.12-1.89,5,5,0,0,1,4.14,1.91,7.42,7.42,0,0,1,1.4,4.7A7.47,7.47,0,0,1,37.72,43.12Zm14.77,0.08a3.88,3.88,0,0,1-3.09,1.41H41.66V43.7H42q0.75,0,.75-1.43V29q0-1.36-.82-1.36h-0.3V26.74h7.68a3.17,3.17,0,0,1,2.34,1.11A4.4,4.4,0,0,1,52.86,31a4.28,4.28,0,0,1-2.42,4.25,4.66,4.66,0,0,1,3.19,4.58A5,5,0,0,1,52.49,43.19ZM65.56,44a5.46,5.46,0,0,1-3.32,1,5.18,5.18,0,0,1-4.07-1.81,6.65,6.65,0,0,1-1.62-4.65A7.68,7.68,0,0,1,58,33.64a4.53,4.53,0,0,1,3.79-1.86,4.32,4.32,0,0,1,3.54,1.84,7.48,7.48,0,0,1,1.45,4.73,0.37,0.37,0,0,1-.42.4H60a8.69,8.69,0,0,0,.62,3.82,2.12,2.12,0,0,0,2,1.28,4.64,4.64,0,0,0,2-.45,1.34,1.34,0,0,0,1-1.06,0.92,0.92,0,0,0-.35-0.48A0.92,0.92,0,0,1,65,41.21a0.82,0.82,0,0,1,.9-1q1,0,1,1.41A2.89,2.89,0,0,1,65.56,44Z"/></clipPath><clipPath id="l" transform="translate(-5 -7)"><path class="a" d="M33.57,32.93q-2,0-2,5.46t2,5.46q2.07,0,2.07-5.46a13.88,13.88,0,0,0-.42-4,1.75,1.75,0,0,0-1.65-1.41"/></clipPath><clipPath id="n" transform="translate(-5 -7)"><path class="a" d="M47.95,35.77a1.56,1.56,0,0,1-1.12-.4,1.46,1.46,0,0,1-.42-1,0.75,0.75,0,0,1,.82-0.88,0.63,0.63,0,0,1,.72.7,0.38,0.38,0,0,0,.42.43,0.87,0.87,0,0,0,.8-0.78,12.43,12.43,0,0,0,.27-3.19q0-2.72-1.55-2.72H47.25a1.06,1.06,0,0,0-.82.4,1.23,1.23,0,0,0-.4.93V42a1.25,1.25,0,0,0,1.35,1.48h0.75q2.07,0,2.07-3.52,0-4.15-2.25-4.15"/></clipPath><clipPath id="p" transform="translate(-5 -7)"><path class="a" d="M63.12,34.31a1.5,1.5,0,0,0-1.45-1.38,1.47,1.47,0,0,0-1.37,1.38A13.39,13.39,0,0,0,60,37.56h3.32a15.23,15.23,0,0,0-.22-3.24"/></clipPath><clipPath id="r" transform="translate(-5 -7)"><path class="a" d="M86.1,28.71a5.87,5.87,0,0,1,0,3.38,3.27,3.27,0,0,1-2.48,2.44,2.34,2.34,0,0,1-2-.52,3.08,3.08,0,0,1-1.1-1.59,5.23,5.23,0,0,1,.07-3.19,4.53,4.53,0,0,1,1.12-1.78,3.27,3.27,0,0,1,1.61-1,0.91,0.91,0,0,1,.52,0,0.47,0.47,0,0,1,.32.33,0.68,0.68,0,0,1-.45.71,5.64,5.64,0,0,0-1,.77,5.11,5.11,0,0,0-.46.65,3.89,3.89,0,0,0-.49,3.25,2.41,2.41,0,0,0,.51,1,1,1,0,0,0,1,.36,1.77,1.77,0,0,0,1.23-.93,5.56,5.56,0,0,0,.55-4.29,1.37,1.37,0,0,0-.23-0.45,0.73,0.73,0,0,0-.45-0.31,0.38,0.38,0,0,1-.34-0.2c0-.13,0-0.21.23-0.25a0.64,0.64,0,0,1,.26,0,1.84,1.84,0,0,1,1.57,1.6"/></clipPath><clipPath id="t" transform="translate(-5 -7)"><path class="a" d="M97.63,43.4c-1.67.39-4.13,1.25-3.73-.74,0.1-.48.56-1.23,0.29-1.07a65.62,65.62,0,0,0,8.92-2.3c1.59-.58,1.26-1.21.84-1.47l0,0a1,1,0,0,0-.73-0.09,53.72,53.72,0,0,0-8.61,2.4c0.43,0.05,1-2.52.67-3.7a5.37,5.37,0,0,0-1.36-.8c-1,.07-1.67.29-1.35,1.71a7.56,7.56,0,0,1,0,3c-0.1.42-1.9,0.4-2.55,0.89-0.42.32-.54,1-0.14,1a7.75,7.75,0,0,0,2.45-.42c-0.53,1.06-.95,3.44.34,4.21a4.63,4.63,0,0,0,4.09.19c2.37-.8,6.65-2.42,7.35-4.39a1.12,1.12,0,0,0-.43-0.82c-1.1-.19-4.11,2-6,2.45"/></clipPath><clipPath id="v" transform="translate(-5 -7)"><path class="a" d="M96,22.43A3.22,3.22,0,0,1,100,25.26c0.45,2.61-.79,5.74-3,6S92.43,28.81,92,26.2c-0.29-1.76.41-3.34,2.84-3.63ZM94,26.19c0.38,2.25,1.84,3.52,2.65,3.42S98.43,28,98,25.71c-0.2-1.19-1-1.55-2.31-1.4S93.78,25,94,26.19Z"/></clipPath><clipPath id="x" transform="translate(-5 -7)"><path class="a" d="M103.4,32.81c0.22,0.69.22,1.07,0,1.14a0.88,0.88,0,0,1-.48.07,2.14,2.14,0,0,1-.48-0.82,4.1,4.1,0,0,0-1.54-1.54,3.39,3.39,0,0,0-2.14-.5,1.74,1.74,0,0,0-1,.41,0.14,0.14,0,0,0,0,.09,12.41,12.41,0,0,1,1.51,1.13q0.9,0.8.54,1.35a0.8,0.8,0,0,1-.48.18,7.9,7.9,0,0,1-2.59-1.09,6.62,6.62,0,0,0-1.13-.84A2.37,2.37,0,0,0,93.93,32a1.44,1.44,0,0,0-.86.4,0.9,0.9,0,0,0-.2.91,3.82,3.82,0,0,0,.43.85L95,34.44a22.16,22.16,0,0,0,3.88.31,34.05,34.05,0,0,0,4.44-.13,1.13,1.13,0,0,1,1.22.31q0.25,0.42-.58.86a11.77,11.77,0,0,1-2.72.63q-2,.25-4.38.42a43.22,43.22,0,0,1-4.71,0,8.12,8.12,0,0,1-2.42-.47c-0.25-.3-1-0.81-0.8-1.51s2.27-.33,2.46-0.49a3.19,3.19,0,0,1-.4-0.91,3.27,3.27,0,0,1,.12-2.73,2.34,2.34,0,0,1,1.74-1.2q1-.18,3.56,1.25L96.62,31a2.33,2.33,0,0,1,.25-0.49,2.16,2.16,0,0,1,1.48-.82,4.17,4.17,0,0,1,2.89.66,4.47,4.47,0,0,1,2.18,2.51"/></clipPath><clipPath id="z" transform="translate(-5 -7)"><path class="a" d="M100.61,16.27a0.67,0.67,0,0,1-.35.54,7.36,7.36,0,0,1-.94,1,4.79,4.79,0,0,1-2.15.42c-0.09,0-.44.06-1,0.16a12.38,12.38,0,0,0-.27,2.3c0,0.1-.21,1,0.41,1.08a10.9,10.9,0,0,0,2.8-.33q0.67-.21.69,0.24a1.2,1.2,0,0,1-.11.77A7.54,7.54,0,0,1,96,23.88a2.79,2.79,0,0,1-1.82-.59,2.7,2.7,0,0,1-1-1.9,9.38,9.38,0,0,1,0-1.45q0.05-1.18,0-1.45l-0.94-.13a2.18,2.18,0,0,1-1-.41s-0.19-.19-0.44-0.46L90.43,17a1.06,1.06,0,0,1-.3-0.62,0.6,0.6,0,0,1,.26-0.53,4.3,4.3,0,0,1,.87-0.41,3.05,3.05,0,0,1,.53-0.19q0.12,0,1.59.29a5.35,5.35,0,0,1,.69-2.73A1.18,1.18,0,0,1,94.93,12a0.4,0.4,0,0,1,.26.13l0.33,0.21,1,0.48a0.88,0.88,0,0,1,.33.69,3.45,3.45,0,0,1-.11.92q-0.15.9-.21,1.33a2.92,2.92,0,0,1,.49,0l1,0,0.49-.07,0.63-.07a2.55,2.55,0,0,1,.89.15,0.7,0.7,0,0,1,.53.53"/></clipPath><clipPath id="ab" transform="translate(-5 -7)"><path class="a" d="M92.1,44.94a0.82,0.82,0,0,1,.72-0.72,2.26,2.26,0,0,1,1.7.58,1.69,1.69,0,0,1,.54,1.63q-0.15.57-.51,4.07-0.28,2.71-.46,3.86a0.53,0.53,0,0,1-.47.59q-0.38,0-.54-0.86-0.32-1.63-.6-4.15a42.31,42.31,0,0,1-.38-5"/></clipPath><clipPath id="ad" transform="translate(-5 -7)"><path class="a" d="M112.32,42.13a12,12,0,0,0-5.65,4.24q-2.14,2.94-2,4.6c0,0.3.13,0.45,0.33,0.44,0.45,0,2.91-3.13,7.36-9.28m7.48-24.74q1.2-1.53,3.15,0a4.6,4.6,0,0,1,1.7,3.84,5.6,5.6,0,0,1-1,3.76q-1.32,1.68-3.59,0a4.22,4.22,0,0,1-1.47-3.81,6.47,6.47,0,0,1,1.25-3.71M78.46,51.26c-0.24-.17-1.82-1.39-2.32-1.25a1.54,1.54,0,0,0-.46,2.38,4,4,0,0,0,2.78-1.13M114.39,32.1c-1,.76-5.16,3.89-5.78,3.11-0.15-.19,0-0.5.38-0.58a7.47,7.47,0,0,0,1.76-.73A28.85,28.85,0,0,0,114.42,31a20.84,20.84,0,0,0,2.24-2.16A7.71,7.71,0,0,1,118.94,27a2.34,2.34,0,0,1,2.16.53c2.84,2.17-4.44,13.35-4.44,13.35,0.58-.08,18,11.09,18.4,13.09,0.32,1.62-1.3,2.91-4.1,1.47L115.39,43.07c-1,2-6.7,12.08-14.11,14.17-9.08,2.45-19.2-5.16-20.76-5.45a6.17,6.17,0,0,1-4.41,1.79c-3.58-.15-2.35-4.83-0.2-5,1.75,0,3.24.89,4.14,0.89a28.89,28.89,0,0,0,4.28-6.7c0.43-1.09.62-2.57-.32-3.39-1.24-.76-2.76.1-3.51,1a18.48,18.48,0,0,0-1.41,2.12,4.4,4.4,0,0,1-.79,1.06,0.5,0.5,0,0,1-.63-0.14c-0.76-.54-0.8-1.76.17-3.23a7.78,7.78,0,0,1,2.81-3c4.7-2.42,7.51,2,6.41,5.47-1.1,4-4,7-4.94,7.16,1-.21,7.88,2.29,10.27,2.93a16.63,16.63,0,0,0,7,.64c0.94-.12,2.83-0.34,3.67-1.18a0.84,0.84,0,0,0,.06-0.73q-0.15-2.42,2.54-6a17.25,17.25,0,0,1,7.9-5.63c2.28-2.89,5.4-9.72,4.78-10.16s-2.53,1.26-3.95,2.38"/></clipPath></defs><title>Logo_反白</title><g class="c"><g class="d"><rect class="e" x="129.36" y="11.22" width="39.47" height="39.43"/></g></g><g class="f"><g class="d"><rect class="e" x="162.49" y="11.44" width="38.68" height="39.14"/></g></g><g class="g"><g class="d"><rect class="e" x="196.11" y="11.85" width="38.84" height="38.92"/></g></g><g class="h"><g class="d"><g class="i"><g class="j"><g class="k"><g class="j"><rect class="e" y="5.1" width="70.77" height="46.48"/></g></g></g></g></g></g><g class="l"><g class="d"><rect class="e" x="21.55" y="20.93" width="14.09" height="20.92"/></g></g><g class="m"><g class="d"><rect class="e" x="36.03" y="15.9" width="14.17" height="25.54"/></g></g><g class="n"><g class="d"><rect class="e" x="50.03" y="20.93" width="13.32" height="14.63"/></g></g><g class="o"><g class="d"><rect class="e" x="70.26" y="14.43" width="16.07" height="18.15"/></g></g><g class="p"><g class="d"><rect class="e" x="79.55" y="23.6" width="24.75" height="20.95"/></g></g><g class="q"><g class="d"><rect class="e" x="81.94" y="10.39" width="18.11" height="18.89"/></g></g><g class="r"><g class="d"><rect class="e" x="78.9" y="17.58" width="25.71" height="17.36"/></g></g><g class="s"><g class="d"><rect class="e" x="80.13" width="20.48" height="21.89"/></g></g><g class="t"><g class="d"><rect class="e" x="82.08" y="32.21" width="13" height="20.75"/></g></g><g class="u"><g class="d"><rect class="e" x="63.86" y="4.62" width="71.24" height="51.1"/></g></g></svg>